<?xml version="1.0" encoding="iso-8859-1"?>
<!-- Uploaded to: SVG Repo, www.svgrepo.com, Generator: SVG Repo Mixer Tools -->
<!DOCTYPE svg PUBLIC "-//W3C//DTD SVG 1.1//EN" "http://www.w3.org/Graphics/SVG/1.1/DTD/svg11.dtd">
<svg height="800px" width="800px" version="1.1" id="Capa_1" xmlns="http://www.w3.org/2000/svg" xmlns:xlink="http://www.w3.org/1999/xlink" 
	 viewBox="0 0 297 297" xml:space="preserve">
<g>
	<g>
		<path style="fill:#759AAC;" d="M158.972,0h-20.944c-37.636,0-68.146,30.51-68.146,68.146v71.619c0,18.558,15.044,0,33.602,0
			h90.031c18.558,0,33.602,18.558,33.602,0V68.146C227.118,30.51,196.608,0,158.972,0z M170.201,122.294h-43.403
			c-18.558,0-33.602,18.558-33.602,0v-51.86c0-25.658,20.8-46.457,46.457-46.457h17.692c25.658,0,46.457,20.8,46.457,46.457v51.86
			C203.803,140.852,188.759,122.294,170.201,122.294z"/>
	</g>
	<g>
		<line style="fill:#3F556A;" x1="208.682" y1="297" x2="88.318" y2="297"/>
	</g>
	<g>
		<path style="fill:#3F556A;" d="M270.794,199.235c0-58.432-54.753-105.801-122.294-105.801S26.206,140.803,26.206,199.235
			c0,39.504,25.029,79.593,62.112,97.765h120.363C245.765,278.828,270.794,238.739,270.794,199.235z"/>
	</g>
	<g>
		<path style="fill:#364654;" d="M234.967,124.416L72.19,287.193c5.064,3.727,10.453,7.026,16.128,9.807h120.363
			c37.083-18.172,62.113-58.261,62.113-97.765C270.794,170.016,257.102,143.563,234.967,124.416z"/>
	</g>
	<g>
		<circle style="fill:#BDC3C7;" cx="148.5" cy="192.176" r="52.412"/>
	</g>
</g>
</svg>